<svg width="30" height="35" viewBox="0 0 30 35" fill="none" xmlns="http://www.w3.org/2000/svg">
<path d="M16.3324 10.5C17.5138 10.5 18.6467 11.0531 19.4821 12.0377C20.3174 13.0223 20.7867 14.3576 20.7867 15.75C20.7867 16.2141 20.9431 16.6592 21.2216 16.9874C21.5 17.3156 21.8777 17.5 22.2715 17.5C22.6653 17.5 23.0429 17.3156 23.3214 16.9874C23.5998 16.6592 23.7562 16.2141 23.7562 15.75C23.7562 13.4294 22.9741 11.2038 21.5819 9.56282C20.1896 7.92187 18.3013 7 16.3324 7C15.9386 7 15.561 7.18437 15.2825 7.51256C15.0041 7.84075 14.8477 8.28587 14.8477 8.75C14.8477 9.21413 15.0041 9.65925 15.2825 9.98744C15.561 10.3156 15.9386 10.5 16.3324 10.5Z" fill="#88DC7A"/>
<path d="M16.3324 3.5C19.0889 3.5 21.7325 4.79062 23.6816 7.08794C25.6308 9.38526 26.7258 12.5011 26.7258 15.75C26.7258 16.2141 26.8822 16.6592 27.1607 16.9874C27.4391 17.3156 27.8168 17.5 28.2105 17.5C28.6043 17.5 28.982 17.3156 29.2604 16.9874C29.5389 16.6592 29.6953 16.2141 29.6953 15.75C29.6953 11.5728 28.2874 7.56677 25.7814 4.61307C23.2754 1.65937 19.8765 0 16.3324 0C15.9386 0 15.561 0.184374 15.2825 0.512563C15.0041 0.840752 14.8477 1.28587 14.8477 1.75C14.8477 2.21413 15.0041 2.65925 15.2825 2.98744C15.561 3.31563 15.9386 3.5 16.3324 3.5ZM29.3241 24.3425C29.2425 24.0616 29.1015 23.8097 28.9145 23.6107C28.7274 23.4117 28.5005 23.2721 28.2551 23.205L19.3465 20.8075C19.1047 20.7429 18.853 20.7507 18.6144 20.8301C18.3758 20.9096 18.1579 21.0583 17.9805 21.2625C17.7726 21.49 17.7578 21.5075 16.7927 23.6775C13.5904 21.9383 11.0244 18.9015 9.56189 15.12C11.4475 14 11.4624 14 11.6554 13.7375C11.8287 13.5285 11.9548 13.2716 12.0222 12.9904C12.0897 12.7092 12.0963 12.4125 12.0414 12.1275L10.0073 1.75C9.95037 1.46072 9.83191 1.19327 9.66307 0.972845C9.49423 0.752416 9.28058 0.586254 9.04222 0.49C8.69548 0.344032 8.33742 0.238526 7.97319 0.175C7.59792 0.0724416 7.21497 0.0138239 6.82992 0C5.01851 0 3.2813 0.848123 2.00044 2.35779C0.719579 3.86746 0 5.91501 0 8.05C0.00785726 15.1947 2.41941 22.0442 6.70579 27.0963C10.9922 32.1484 16.8035 34.9907 22.8654 35C23.7623 35 24.6504 34.7918 25.4791 34.3872C26.3077 33.9827 27.0607 33.3897 27.6949 32.6422C28.3291 31.8947 28.8322 31.0073 29.1754 30.0306C29.5186 29.0539 29.6953 28.0071 29.6953 26.95C29.6958 26.5046 29.666 26.0598 29.6062 25.62C29.5438 25.1853 29.4494 24.7579 29.3241 24.3425Z" fill="#88DC7A"/>
</svg>
