<svg width="22" height="23" viewBox="0 0 22 23" fill="none" xmlns="http://www.w3.org/2000/svg">
<path d="M13.3848 4.74427C13.3848 3.79066 12.2588 3.28602 11.5465 3.91881L7.57562 7.44778C7.45442 7.55576 7.29781 7.61551 7.13549 7.6157H3.88403C3.35664 7.6157 2.85085 7.82521 2.47793 8.19813C2.10501 8.57105 1.89551 9.07684 1.89551 9.60423V13.5786C1.89551 14.106 2.10501 14.6118 2.47793 14.9847C2.85085 15.3576 3.35664 15.5672 3.88403 15.5672H7.13638C7.2987 15.5673 7.45531 15.6271 7.5765 15.7351L11.5456 19.2649C12.2579 19.8977 13.3848 19.3922 13.3848 18.4395V4.74427Z" fill="#3E414D"/>
<path d="M14.4629 9.13663C14.5872 9.0125 14.7557 8.94278 14.9313 8.94278C15.107 8.94278 15.2755 9.0125 15.3997 9.13663L16.9199 10.6567L18.44 9.13663C18.5007 9.0715 18.5738 9.01927 18.6551 8.98304C18.7364 8.94681 18.8242 8.92733 18.9132 8.92576C19.0022 8.92419 19.0906 8.94056 19.1732 8.9739C19.2557 9.00724 19.3307 9.05686 19.3936 9.1198C19.4566 9.18274 19.5062 9.25772 19.5395 9.34025C19.5729 9.42279 19.5892 9.51119 19.5877 9.60019C19.5861 9.68919 19.5666 9.77697 19.5304 9.85827C19.4941 9.93958 19.4419 10.0128 19.3768 10.0734L17.8567 11.5936L19.3768 13.1137C19.4419 13.1744 19.4941 13.2475 19.5304 13.3288C19.5666 13.4102 19.5861 13.4979 19.5877 13.5869C19.5892 13.6759 19.5729 13.7643 19.5395 13.8469C19.5062 13.9294 19.4566 14.0044 19.3936 14.0673C19.3307 14.1303 19.2557 14.1799 19.1732 14.2132C19.0906 14.2466 19.0022 14.2629 18.9132 14.2614C18.8242 14.2598 18.7364 14.2403 18.6551 14.2041C18.5738 14.1679 18.5007 14.1156 18.44 14.0505L16.9199 12.5304L15.3997 14.0505C15.3391 14.1156 15.2659 14.1679 15.1846 14.2041C15.1033 14.2403 15.0155 14.2598 14.9265 14.2614C14.8375 14.2629 14.7491 14.2466 14.6665 14.2132C14.584 14.1799 14.509 14.1303 14.4461 14.0673C14.3832 14.0044 14.3335 13.9294 14.3002 13.8469C14.2669 13.7643 14.2505 13.6759 14.2521 13.5869C14.2536 13.4979 14.2731 13.4102 14.3093 13.3288C14.3456 13.2475 14.3978 13.1744 14.4629 13.1137L15.983 11.5936L14.4629 10.0734C14.3388 9.94916 14.2691 9.78069 14.2691 9.60504C14.2691 9.42938 14.3388 9.26091 14.4629 9.13663Z" fill="#3E414D"/>
</svg>
