<svg width="22" height="17" viewBox="0 0 22 17" fill="none" xmlns="http://www.w3.org/2000/svg">
<path d="M9.96045 16.078C9.96045 16.078 8.63477 16.078 8.63477 14.7523C8.63477 13.4266 9.96045 9.44959 15.2632 9.44959C20.5659 9.44959 21.8916 13.4266 21.8916 14.7523C21.8916 16.078 20.5659 16.078 20.5659 16.078H9.96045ZM15.2632 8.1239C16.318 8.1239 17.3295 7.70489 18.0754 6.95905C18.8212 6.21321 19.2402 5.20163 19.2402 4.14685C19.2402 3.09207 18.8212 2.08049 18.0754 1.33465C17.3295 0.588809 16.318 0.1698 15.2632 0.1698C14.2084 0.1698 13.1968 0.588809 12.451 1.33465C11.7051 2.08049 11.2861 3.09207 11.2861 4.14685C11.2861 5.20163 11.7051 6.21321 12.451 6.95905C13.1968 7.70489 14.2084 8.1239 15.2632 8.1239Z" fill="white"/>
<path fill-rule="evenodd" clip-rule="evenodd" d="M7.59519 16.078C7.39866 15.6641 7.30065 15.2104 7.30884 14.7523C7.30884 12.956 8.2103 11.1066 9.87536 9.82073C9.04428 9.56466 8.17842 9.43943 7.30884 9.44954C2.0061 9.44954 0.68042 13.4266 0.68042 14.7523C0.68042 16.078 2.0061 16.078 2.0061 16.078H7.59519Z" fill="white"/>
<path d="M6.646 8.1239C7.52498 8.1239 8.36796 7.77473 8.9895 7.15319C9.61103 6.53166 9.96021 5.68868 9.96021 4.80969C9.96021 3.93071 9.61103 3.08773 8.9895 2.46619C8.36796 1.84466 7.52498 1.49548 6.646 1.49548C5.76701 1.49548 4.92403 1.84466 4.3025 2.46619C3.68096 3.08773 3.33179 3.93071 3.33179 4.80969C3.33179 5.68868 3.68096 6.53166 4.3025 7.15319C4.92403 7.77473 5.76701 8.1239 6.646 8.1239Z" fill="white"/>
</svg>
