<svg width="22" height="23" viewBox="0 0 22 23" fill="none" xmlns="http://www.w3.org/2000/svg">
<path d="M7.20899 6.82129C6.92771 6.82129 6.65796 6.93303 6.45907 7.13192C6.26017 7.33081 6.14844 7.60056 6.14844 7.88184V15.3057C6.14844 15.5869 6.26017 15.8567 6.45907 16.0556C6.65796 16.2545 6.92771 16.3662 7.20899 16.3662H14.6328C14.9141 16.3662 15.1838 16.2545 15.3827 16.0556C15.5816 15.8567 15.6934 15.5869 15.6934 15.3057V7.88184C15.6934 7.60056 15.5816 7.33081 15.3827 7.13192C15.1838 6.93303 14.9141 6.82129 14.6328 6.82129H7.20899ZM21.5264 11.5938C21.5264 17.4512 16.7783 22.1992 10.9209 22.1992C5.0635 22.1992 0.31543 17.4512 0.31543 11.5938C0.31543 5.73635 5.0635 0.988281 10.9209 0.988281C16.7783 0.988281 21.5264 5.73635 21.5264 11.5938ZM20.2007 11.5938C20.2007 6.46866 16.046 2.31396 10.9209 2.31396C5.79581 2.31396 1.64111 6.46866 1.64111 11.5938C1.64111 16.7188 5.79581 20.8735 10.9209 20.8735C16.046 20.8735 20.2007 16.7188 20.2007 11.5938Z" fill="#EB5844"/>
</svg>
