<svg width="19" height="19" viewBox="0 0 19 19" fill="none" xmlns="http://www.w3.org/2000/svg">
<path d="M17.8705 7.92516L15.8967 7.33597C15.7603 6.8595 15.5726 6.39921 15.337 5.96315L16.3033 4.15433C16.3395 4.08605 16.3528 4.00791 16.3411 3.93149C16.3295 3.85507 16.2935 3.78445 16.2385 3.73011L14.8303 2.31605C14.776 2.26106 14.7053 2.22505 14.6289 2.21338C14.5525 2.2017 14.4744 2.21498 14.4061 2.25124L12.609 3.21162C12.1687 2.96455 11.7023 2.76695 11.2185 2.62243L10.6293 0.672201C10.6044 0.600329 10.5573 0.538218 10.4949 0.494808C10.4324 0.451398 10.3578 0.428928 10.2817 0.430632H8.29025C8.21374 0.430988 8.13934 0.455752 8.07788 0.50132C8.01641 0.546887 7.9711 0.61088 7.94852 0.683985L7.35933 2.62832C6.87148 2.77207 6.40116 2.96969 5.95705 3.21751L4.18947 2.26302C4.12119 2.22676 4.04305 2.21349 3.96663 2.22516C3.89021 2.23684 3.81959 2.27284 3.76525 2.32783L2.33351 3.72422C2.27852 3.77856 2.24252 3.84917 2.23084 3.92559C2.21917 4.00201 2.23244 4.08016 2.2687 4.14844L3.22319 5.91602C2.97577 6.35826 2.77816 6.82659 2.634 7.3124L0.683773 7.9016C0.610668 7.92417 0.546675 7.96949 0.501107 8.03095C0.45554 8.09242 0.430776 8.16682 0.43042 8.24333V10.2348C0.430776 10.3113 0.45554 10.3857 0.501107 10.4472C0.546675 10.5086 0.610668 10.554 0.683773 10.5765L2.64578 11.1657C2.79152 11.6435 2.98909 12.1038 3.23498 12.5385L2.2687 14.3886C2.23244 14.4569 2.21917 14.535 2.23084 14.6115C2.24252 14.6879 2.27852 14.7585 2.33351 14.8128L3.74168 16.221C3.79602 16.276 3.86664 16.312 3.94306 16.3237C4.01948 16.3353 4.09763 16.3221 4.1659 16.2858L5.98651 15.3136C6.41719 15.546 6.87149 15.7317 7.34165 15.8675L7.93084 17.8531C7.95342 17.9262 7.99874 17.9902 8.0602 18.0357C8.12166 18.0813 8.19607 18.1061 8.27258 18.1064H10.264C10.3406 18.1061 10.415 18.0813 10.4764 18.0357C10.5379 17.9902 10.5832 17.9262 10.6058 17.8531L11.195 15.8616C11.6611 15.7251 12.1114 15.5395 12.5383 15.3077L14.3707 16.2858C14.439 16.3221 14.5171 16.3353 14.5936 16.3237C14.67 16.312 14.7406 16.276 14.7949 16.221L16.2031 14.8128C16.2581 14.7585 16.2941 14.6879 16.3058 14.6115C16.3175 14.535 16.3042 14.4569 16.2679 14.3886L15.2899 12.5621C15.524 12.1336 15.7116 11.6813 15.8496 11.2129L17.8352 10.6237C17.9083 10.6011 17.9723 10.5558 18.0178 10.4943C18.0634 10.4328 18.0882 10.3584 18.0885 10.2819V8.27279C18.092 8.19952 18.073 8.12695 18.034 8.06481C17.995 8.00267 17.938 7.95394 17.8705 7.92516ZM9.28599 12.5091C8.64507 12.5091 8.01854 12.319 7.48563 11.9629C6.95272 11.6069 6.53737 11.1008 6.2921 10.5086C6.04683 9.9165 5.98266 9.26493 6.10769 8.63632C6.23273 8.00772 6.54136 7.4303 6.99457 6.9771C7.44777 6.5239 8.02518 6.21527 8.65379 6.09023C9.28239 5.96519 9.93396 6.02937 10.5261 6.27464C11.1182 6.51991 11.6243 6.93526 11.9804 7.46816C12.3365 8.00107 12.5265 8.6276 12.5265 9.26852C12.5265 10.128 12.1851 10.9522 11.5774 11.5599C10.9697 12.1677 10.1454 12.5091 9.28599 12.5091Z" fill="white"/>
</svg>
