<svg width="35" height="35" viewBox="0 0 35 35" fill="none" xmlns="http://www.w3.org/2000/svg">
<rect x="0.388672" y="0.973633" width="33.9375" height="33.9375" rx="16.9688" fill="#EB5844"/>
<path d="M22.5142 19.084L22.4022 19.5728C22.2982 20.0305 21.7846 20.3378 21.2032 20.2912L20.0455 20.1978C19.5416 20.1573 19.1117 19.8584 18.9834 19.4597L18.6265 18.3496C18.0977 18.1691 17.5151 18.0866 16.8789 18.1017C16.2661 18.1128 15.6622 18.2263 15.103 18.4354L14.8813 19.4748C14.7976 19.8688 14.4079 20.1625 13.9141 20.204L12.7632 20.3001C12.1886 20.3482 11.6383 20.0437 11.4754 19.5884L11.3001 19.0991C11.1259 18.6131 11.2814 18.1012 11.7078 17.7557C12.7151 16.9403 14.3943 16.5312 16.7454 16.5283C19.1004 16.526 20.8316 16.9323 21.9402 17.7482C22.4068 18.0913 22.6245 18.5995 22.5142 19.084Z" fill="white"/>
</svg>
